<svg width="1920" height="1100" viewBox="0 0 1920 1100" fill="none" xmlns="http://www.w3.org/2000/svg">
<g clip-path="url(#clip0)" filter="url(#filter0_f)">
<path d="M1142.32 361.025C1166.37 361.025 1185.87 341.528 1185.87 317.478C1185.87 293.428 1166.37 273.931 1142.32 273.931C1118.27 273.931 1098.77 293.428 1098.77 317.478C1098.77 341.528 1118.27 361.025 1142.32 361.025Z" fill="#8C1B1B"/>
<path d="M652.465 316.389C668.699 316.389 681.859 303.229 681.859 286.995C681.859 270.761 668.699 257.601 652.465 257.601C636.231 257.601 623.071 270.761 623.071 286.995C623.071 303.229 636.231 316.389 652.465 316.389Z" fill="#BDEAF2"/>
<path d="M1073.73 390.419C1089.97 390.419 1103.13 377.259 1103.13 361.025C1103.13 344.791 1089.97 331.631 1073.73 331.631C1057.5 331.631 1044.34 344.791 1044.34 361.025C1044.34 377.259 1057.5 390.419 1073.73 390.419Z" fill="#BDEAF2"/>
<path d="M1073.73 319.655C1082.75 319.655 1090.06 312.344 1090.06 303.325C1090.06 294.306 1082.75 286.995 1073.73 286.995C1064.72 286.995 1057.4 294.306 1057.4 303.325C1057.4 312.344 1064.72 319.655 1073.73 319.655Z" fill="#BDEAF2"/>
<path d="M512.895 183C521.914 183 529.225 175.689 529.225 166.67C529.225 157.651 521.914 150.34 512.895 150.34C503.876 150.34 496.565 157.651 496.565 166.67C496.565 175.689 503.876 183 512.895 183Z" fill="#BDEAF2"/>
<path d="M1005.33 105.185C1014.35 105.185 1021.66 97.8737 1021.66 88.8549C1021.66 79.8361 1014.35 72.5249 1005.33 72.5249C996.311 72.5249 989 79.8361 989 88.8549C989 97.8737 996.311 105.185 1005.33 105.185Z" fill="#BDEAF2"/>
<path d="M560.669 335.985C569.688 335.985 576.999 328.674 576.999 319.655C576.999 310.636 569.688 303.325 560.669 303.325C551.65 303.325 544.339 310.636 544.339 319.655C544.339 328.674 551.65 335.985 560.669 335.985Z" fill="#BDEAF2"/>
<path d="M1265.34 685.451C1308.03 685.451 1342.64 650.844 1342.64 608.155C1342.64 565.466 1308.03 530.859 1265.34 530.859C1222.65 530.859 1188.05 565.466 1188.05 608.155C1188.05 650.844 1222.65 685.451 1265.34 685.451Z" fill="#57A6CE"/>
<path d="M1775.93 722.466C1804.79 722.466 1828.19 699.07 1828.19 670.209C1828.19 641.348 1804.79 617.952 1775.93 617.952C1747.07 617.952 1723.67 641.348 1723.67 670.209C1723.67 699.07 1747.07 722.466 1775.93 722.466Z" fill="#57A6CE"/>
<path d="M1765.04 202.077C1796.31 202.077 1821.66 176.731 1821.66 145.466C1821.66 114.201 1796.31 88.855 1765.04 88.855C1733.78 88.855 1708.43 114.201 1708.43 145.466C1708.43 176.731 1733.78 202.077 1765.04 202.077Z" fill="#57A6CE"/>
<path d="M1158.65 563.519C1173.68 563.519 1185.87 551.334 1185.87 536.302C1185.87 521.27 1173.68 509.085 1158.65 509.085C1143.62 509.085 1131.43 521.27 1131.43 536.302C1131.43 551.334 1143.62 563.519 1158.65 563.519Z" fill="#57A6CE"/>
<path d="M560.669 1132.87C587.048 1132.87 608.433 1111.49 608.433 1085.11C608.433 1058.73 587.048 1037.34 560.669 1037.34C534.29 1037.34 512.905 1058.73 512.905 1085.11C512.905 1111.49 534.29 1132.87 560.669 1132.87Z" fill="#8C1B1B"/>
<path d="M604.554 1028.47C622.36 1028.47 636.795 1014.04 636.795 996.234C636.795 978.428 622.36 963.993 604.554 963.993C586.748 963.993 572.313 978.428 572.313 996.234C572.313 1014.04 586.748 1028.47 604.554 1028.47Z" fill="#BDEAF2"/>
<path d="M634.55 1082C644.443 1082 652.462 1073.98 652.462 1064.09C652.462 1054.2 644.443 1046.18 634.55 1046.18C624.657 1046.18 616.638 1054.2 616.638 1064.09C616.638 1073.98 624.657 1082 634.55 1082Z" fill="#BDEAF2"/>
<path d="M106.705 880.562C133.084 880.562 154.469 859.177 154.469 832.798C154.469 806.419 133.084 785.034 106.705 785.034C80.3257 785.034 58.941 806.419 58.941 832.798C58.941 859.177 80.3257 880.562 106.705 880.562Z" fill="#BDEAF2"/>
<path d="M428.096 1113.26C474.919 1113.26 512.877 1075.3 512.877 1028.48C512.877 981.658 474.919 943.7 428.096 943.7C381.273 943.7 343.315 981.658 343.315 1028.48C343.315 1075.3 381.273 1113.26 428.096 1113.26Z" fill="#57A6CE"/>
<path d="M333.118 699.326C364.773 699.326 390.435 673.664 390.435 642.009C390.435 610.354 364.773 584.692 333.118 584.692C301.463 584.692 275.801 610.354 275.801 642.009C275.801 673.664 301.463 699.326 333.118 699.326Z" fill="#57A6CE"/>
<path d="M116.345 1119.85C132.832 1119.85 146.198 1106.49 146.198 1090C146.198 1073.51 132.832 1060.15 116.345 1060.15C99.8576 1060.15 86.4919 1073.51 86.4919 1090C86.4919 1106.49 99.8576 1119.85 116.345 1119.85Z" fill="#57A6CE"/>
<path d="M116.345 772.476C134.151 772.476 148.586 758.041 148.586 740.235C148.586 722.429 134.151 707.994 116.345 707.994C98.5388 707.994 84.104 722.429 84.104 740.235C84.104 758.041 98.5388 772.476 116.345 772.476Z" fill="#8C1B1B"/>
<path d="M45.088 776.451C54.9806 776.451 63 768.431 63 758.539C63 748.646 54.9806 740.627 45.088 740.627C35.1955 740.627 27.176 748.646 27.176 758.539C27.176 768.431 35.1955 776.451 45.088 776.451Z" fill="#BDEAF2"/>
</g>
<defs>
<filter id="filter0_f" x="-10" y="0" width="1940" height="1100" filterUnits="userSpaceOnUse" color-interpolation-filters="sRGB">
<feFlood flood-opacity="0" result="BackgroundImageFix"/>
<feBlend mode="normal" in="SourceGraphic" in2="BackgroundImageFix" result="shape"/>
<feGaussianBlur stdDeviation="5" result="effect1_foregroundBlur"/>
</filter>
<clipPath id="clip0">
<rect width="1920" height="1080" fill="white" transform="translate(0 10)"/>
</clipPath>
</defs>
</svg>
